<svg width="170" height="170" viewBox="0 0 170 170" fill="none" xmlns="http://www.w3.org/2000/svg">
<path d="M169.375 38.125V160C169.375 162.486 168.387 164.871 166.629 166.629C164.871 168.387 162.486 169.375 160 169.375H38.125C35.6386 169.375 33.254 168.387 31.4959 166.629C29.7377 164.871 28.75 162.486 28.75 160C28.75 157.514 29.7377 155.129 31.4959 153.371C33.254 151.613 35.6386 150.625 38.125 150.625H137.371L3.36718 16.6328C1.60805 14.8737 0.619781 12.4878 0.619781 9.99999C0.619782 7.51221 1.60805 5.12631 3.36718 3.36718C5.12631 1.60805 7.51221 0.619782 9.99999 0.619781C12.4878 0.619781 14.8737 1.60805 16.6328 3.36718L150.625 137.371V38.125C150.625 35.6386 151.613 33.254 153.371 31.4959C155.129 29.7377 157.514 28.75 160 28.75C162.486 28.75 164.871 29.7377 166.629 31.4959C168.387 33.254 169.375 35.6386 169.375 38.125Z" fill="black"/>
</svg>
